<?xml version="1.0" encoding="UTF-8"?>
<svg xmlns="http://www.w3.org/2000/svg" xmlns:xlink="http://www.w3.org/1999/xlink" width="12pt" height="12pt" viewBox="0 0 12 12" version="1.1">
<g id="surface1">
<path style=" stroke:none;fill-rule:nonzero;fill:rgb(0%,0%,0%);fill-opacity:1;" d="M 7.5 6.5 C 7.222656 6.5 7 6.722656 7 7 L 7 9 C 7 9.277344 6.777344 9.5 6.5 9.5 L 5 9.5 L 5 2 C 5 1.574219 4.730469 1.191406 4.316406 1.050781 L 4.171875 1 L 6.5 1 C 6.777344 1 7 1.222656 7 1.5 L 7 3 C 7 3.277344 7.222656 3.5 7.5 3.5 C 7.777344 3.5 8 3.277344 8 3 L 8 1.5 C 8 0.675781 7.328125 0 6.5 0 L 1.125 0 C 1.105469 0 1.089844 0.0078125 1.074219 0.0117188 C 1.050781 0.0078125 1.027344 0 1 0 C 0.449219 0 0 0.449219 0 1 L 0 10 C 0 10.425781 0.273438 10.808594 0.679688 10.949219 L 3.691406 11.953125 C 3.792969 11.984375 3.894531 12 4 12 C 4.550781 12 5 11.550781 5 11 L 5 10.5 L 6.5 10.5 C 7.328125 10.5 8 9.824219 8 9 L 8 7 C 8 6.722656 7.777344 6.5 7.5 6.5 Z M 7.5 6.5 "/>
<path style=" stroke:none;fill-rule:nonzero;fill:rgb(0%,0%,0%);fill-opacity:1;" d="M 11.855469 4.644531 L 9.851562 2.644531 C 9.707031 2.503906 9.496094 2.460938 9.308594 2.535156 C 9.121094 2.617188 9 2.796875 9 3 L 9 4.5 L 7 4.5 C 6.722656 4.5 6.5 4.722656 6.5 5 C 6.5 5.277344 6.722656 5.5 7 5.5 L 9 5.5 L 9 7 C 9 7.199219 9.121094 7.386719 9.308594 7.460938 C 9.496094 7.539062 9.707031 7.496094 9.851562 7.355469 L 11.855469 5.351562 C 12.050781 5.160156 12.050781 4.84375 11.855469 4.644531 Z M 11.855469 4.644531 "/>
</g>
</svg>
